# 3ds Max Wavefront OBJ Exporter v0.97b - (c)2007 guruware
# File Created: 29.11.2020 09:36:40

mtllib A_Bird16.mtl

#
# object A_Bird16
#

v  -0.2629 30.5765 2.0225
v  -0.5716 30.3813 0.8207
v  0.5716 30.3813 0.8207
v  0.2629 30.5765 2.0225
v  -0.2629 31.4653 1.8832
v  0.2629 31.4653 1.8832
v  0.7676 31.4217 0.7177
v  -0.7676 31.4217 0.7177
v  -0.6727 31.3848 -2.2469
v  -0.3290 30.8435 -0.7049
v  -0.3767 31.0879 -0.8012
v  0.6727 31.3848 -2.2469
v  0.3290 30.8435 -0.7049
v  0.3767 31.0879 -0.8012
v  0.2230 31.0218 2.5194
v  -0.2230 31.0218 2.5194
v  0.2230 31.5338 2.3807
v  -0.2230 31.5338 2.3807
v  -0.0000 31.3430 3.0551
v  0.2062 31.2024 1.7816
v  0.4049 31.2024 0.4850
v  1.5559 31.0226 0.4146
v  1.7318 31.0240 1.4266
v  0.2677 31.3108 1.3385
v  1.6801 31.1297 1.0448
v  2.4301 30.0891 0.4704
v  2.5399 30.1340 -0.6827
v  2.2679 30.5740 0.2089
v  -0.2062 31.2024 1.7816
v  -1.7318 31.0240 1.4266
v  -1.5559 31.0226 0.4146
v  -0.4049 31.2024 0.4850
v  -0.2677 31.3108 1.3385
v  -1.6801 31.1297 1.0448
v  -2.4301 30.0891 0.4704
v  -2.2679 30.5740 0.2089
v  -2.5399 30.1340 -0.6827
# 37 vertices

vn -0.6019 -0.6802 0.4184
vn -0.6436 -0.7653 -0.0098
vn 0.6436 -0.7653 -0.0098
vn 0.6019 -0.6802 0.4184
vn -0.6494 0.7529 0.1066
vn 0.6494 0.7529 0.1066
vn 0.8023 0.5969 -0.0121
vn -0.8023 0.5969 -0.0121
vn -0.6342 0.2062 -0.7452
vn -0.5561 -0.7821 -0.2810
vn -0.7742 0.6328 0.0158
vn 0.6342 0.2062 -0.7452
vn 0.5561 -0.7821 -0.2810
vn 0.7742 0.6328 0.0158
vn 0.7230 -0.4683 0.5079
vn -0.7230 -0.4683 0.5079
vn 0.6618 0.7347 0.1491
vn -0.6618 0.7347 0.1491
vn -0.0000 0.1383 0.9904
vn 0.2271 0.0042 0.9739
vn -0.0483 0.0808 -0.9956
vn -0.3446 0.1982 -0.9176
vn 0.3997 -0.0405 0.9157
vn 0.1501 0.9818 0.1162
vn 0.4163 0.9092 0.0095
vn 0.3811 -0.8169 0.4330
vn 0.3308 -0.3184 -0.8884
vn 0.7210 0.6899 -0.0649
vn -0.2271 0.0042 0.9739
vn -0.3997 -0.0405 0.9157
vn 0.3446 0.1982 -0.9176
vn 0.0483 0.0808 -0.9956
vn -0.1501 0.9818 0.1162
vn -0.4163 0.9092 0.0095
vn -0.3811 -0.8169 0.4330
vn -0.7210 0.6899 -0.0649
vn -0.3308 -0.3184 -0.8884
# 37 vertex normals

vt 0.9660 0.1068 0.0000
vt 0.9705 0.1231 0.0000
vt 0.9551 0.1233 0.0000
vt 0.9590 0.1069 0.0000
vt 0.9545 0.3048 0.0000
vt 0.9412 0.3049 0.0000
vt 0.9375 0.2799 0.0000
vt 0.9579 0.2799 0.0000
vt 0.9218 0.3070 0.0000
vt 0.9172 0.2807 0.0000
vt 0.9610 0.2181 0.0000
vt 0.9603 0.2517 0.0000
vt 0.9547 0.2531 0.0000
vt 0.9676 0.1446 0.0000
vt 0.9726 0.1665 0.0000
vt 0.9545 0.1668 0.0000
vt 0.9587 0.1447 0.0000
vt 0.9406 0.2532 0.0000
vt 0.9340 0.2182 0.0000
vt 0.9350 0.2518 0.0000
vt 0.9821 0.2802 0.0000
vt 0.9738 0.3068 0.0000
vt 0.9593 0.0946 0.0000
vt 0.9653 0.0945 0.0000
vt 0.9445 0.3155 0.0000
vt 0.9361 0.3198 0.0000
vt 0.9513 0.3155 0.0000
vt 0.9596 0.3197 0.0000
vt 0.9622 0.0861 0.0000
vt 0.9479 0.3293 0.0000
vt 0.9828 0.2672 0.0000
vt 0.9667 0.2567 0.0000
vt 0.9727 0.2410 0.0000
vt 0.9879 0.2431 0.0000
vt 0.9190 0.1789 0.0000
vt 0.9581 0.1850 0.0000
vt 0.9555 0.2024 0.0000
vt 0.9239 0.2021 0.0000
vt 0.9167 0.1668 0.0000
vt 0.9622 0.1743 0.0000
vt 0.9884 0.1992 0.0000
vt 0.9934 0.2306 0.0000
vt 0.9835 0.2066 0.0000
vt 0.9660 0.2167 0.0000
vt 0.9806 0.2253 0.0000
# 45 texture coords

o A_Bird16
g A_Bird16
usemtl mat_props
s 2
f 1/1/1 2/2/2 3/3/3 4/4/4 
s 4
f 5/5/5 6/6/6 7/7/7 8/8/8 
s 16
f 4/9/4 3/10/3 7/7/7 6/6/6 
s 64
f 9/11/9 10/12/10 11/13/11 
s 2
f 10/14/10 9/15/9 12/16/12 13/17/13 
s 4
f 14/18/14 12/19/12 9/11/9 11/13/11 
s 16
f 13/20/13 12/19/12 14/18/14 
s 64
f 10/12/10 2/21/2 8/8/8 11/13/11 
s 2
f 2/2/2 10/14/10 13/17/13 3/3/3 
s 4
f 7/7/7 14/18/14 11/13/11 8/8/8 
s 16
f 3/10/3 13/20/13 14/18/14 7/7/7 
s 64
f 2/21/2 1/22/1 5/5/5 8/8/8 
s off
f 1/1/1 4/4/4 15/23/15 16/24/16 
f 4/9/4 6/6/6 17/25/17 15/26/15 
f 6/6/6 5/5/5 18/27/18 17/25/17 
f 5/5/5 1/22/1 16/28/16 18/27/18 
f 16/24/16 15/23/15 19/29/19 
f 15/26/15 17/25/17 19/30/19 
f 17/25/17 18/27/18 19/30/19 
f 18/27/18 16/28/16 19/30/19 
s 2
f 20/31/20 21/32/21 22/33/22 23/34/23 
s 4
f 24/35/24 25/36/25 22/37/22 21/38/21 
s 8
f 20/39/20 23/40/23 25/36/25 24/35/24 
s 16
f 26/41/26 27/42/27 28/43/28 
s off
f 23/34/23 22/33/22 27/44/27 26/45/26 
f 22/37/22 25/36/25 28/43/28 27/42/27 
f 25/36/25 23/40/23 28/43/28 
s 2
f 29/31/29 30/34/30 31/33/31 32/32/32 
s 4
f 33/35/33 32/38/32 31/37/31 34/36/34 
s 8
f 29/39/29 33/35/33 34/36/34 30/40/30 
s 16
f 35/41/35 36/43/36 37/42/37 
s off
f 30/34/30 35/45/35 37/44/37 31/33/31 
f 31/37/31 37/42/37 36/43/36 34/36/34 
f 34/36/34 36/43/36 30/40/30 
f 23/40/23 26/41/26 28/43/28 
f 36/43/36 35/41/35 30/40/30 
# 24 polygons - 12 triangles

