# 3ds Max Wavefront OBJ Exporter v0.97b - (c)2007 guruware
# File Created: 29.11.2020 09:36:20

mtllib A_Cloud14.mtl

#
# object A_Cloud14
#

v  4.0794 74.4332 -15.2898
v  -5.0226 70.7845 -9.4050
v  -2.4752 82.5890 -15.2898
v  10.0215 78.5111 11.5463
v  6.2015 86.7668 2.3646
v  2.5281 78.5111 15.2899
v  10.0215 87.2213 1.0495
v  15.4830 77.2747 3.0882
v  1.5320 62.6287 2.3646
v  1.5320 62.6287 -9.4050
v  7.7768 92.4595 -3.5202
v  12.1334 83.5272 -6.4158
v  5.4295 85.4853 -10.2862
v  -5.6212 78.5111 -3.2287
v  0.0721 94.3935 2.3646
v  0.0721 94.3936 -9.4050
v  10.5428 78.5111 -9.8412
v  5.1164 71.5369 -9.9534
v  7.7768 64.5627 -3.5202
v  12.1334 73.4950 -6.4158
v  5.5724 71.9821 5.1551
v  -5.6211 73.9886 1.8153
v  10.0215 69.8009 1.0496
v  -1.5956 78.7338 6.7901
v  14.2604 78.5111 -6.6019
v  -9.2605 86.7844 -3.9889
v  -9.3172 80.8227 -8.7452
v  -11.7548 80.8150 -7.8010
v  -12.2149 80.8569 -3.8315
v  -11.0734 80.7260 0.8615
v  -7.6232 80.7517 0.1460
v  -6.8255 80.7810 -3.1366
v  -7.4320 80.7912 -7.3480
v  -9.2605 70.2378 -3.9889
v  -9.4096 75.9434 -9.2145
v  -7.3872 75.9434 -7.4717
v  -12.8571 75.9434 -3.6821
v  -12.1110 75.9434 -8.1042
v  -7.6855 75.9434 0.2848
v  -11.0988 75.9434 0.8298
v  -6.6144 75.9434 -2.9851
v  -12.9372 91.9226 7.8414
v  -14.4675 86.9565 6.8400
v  -15.4830 86.9565 8.9961
v  -14.2300 86.9565 10.2964
v  -12.3067 86.9565 10.0117
v  -10.6051 86.9565 8.3896
v  -11.0782 86.9565 6.6962
v  -12.4064 86.9565 5.8146
v  -12.9372 81.9904 7.8414
# 50 vertices

vn 0.4531 -0.2003 -0.8687
vn -0.8438 -0.3437 -0.4121
vn -0.4607 0.2493 -0.8518
vn 0.5936 0.0120 0.8046
vn 0.1837 0.7477 0.6382
vn -0.3119 -0.0032 0.9501
vn 0.6180 0.6633 0.4221
vn 0.9610 -0.0891 0.2618
vn 0.0681 -0.8620 0.5023
vn 0.1090 -0.8990 -0.4242
vn -0.0467 0.9967 -0.0667
vn 0.7879 0.4460 -0.4246
vn 0.5208 0.4367 -0.7335
vn -0.9835 0.1766 0.0387
vn -0.1483 0.8570 0.4936
vn -0.1076 0.8917 -0.4396
vn 0.4468 -0.0133 -0.8945
vn 0.7427 -0.4279 -0.5151
vn -0.0292 -0.9958 -0.0869
vn 0.7548 -0.4619 -0.4658
vn 0.0175 -0.7323 0.6808
vn -0.8689 -0.1662 0.4662
vn 0.6248 -0.6744 0.3935
vn -0.7655 0.0222 0.6430
vn 0.8974 0.0184 -0.4409
vn 0.0412 0.9991 -0.0020
vn 0.1243 0.3457 -0.9301
vn -0.7351 0.3294 -0.5926
vn -0.9553 0.2896 0.0597
vn -0.4946 0.2985 0.8163
vn 0.6530 0.2802 0.7037
vn 0.9757 0.2129 0.0517
vn 0.8210 0.2497 -0.5134
vn 0.0635 -0.9979 0.0104
vn 0.1354 -0.2821 -0.9498
vn 0.8304 -0.2456 -0.5002
vn -0.9740 -0.2030 0.1008
vn -0.7409 -0.2704 -0.6148
vn 0.6013 -0.2855 0.7463
vn -0.4637 -0.3185 0.8267
vn 0.9780 -0.1917 0.0818
vn 0.0079 0.9985 -0.0542
vn -0.7235 -0.0000 -0.6903
vn -0.9800 0.0000 0.1989
vn -0.3399 -0.0000 0.9405
vn 0.4278 -0.0000 0.9039
vn 0.9654 -0.0000 0.2609
vn 0.8124 -0.0000 -0.5831
vn 0.0824 -0.0000 -0.9966
vn 0.0079 -0.9985 -0.0542
# 50 vertex normals

vt 0.6889 0.1181 0.0000
vt 0.6968 0.0711 0.0000
vt 0.7148 0.1013 0.0000
vt 0.7834 0.1557 0.0000
vt 0.7517 0.1356 0.0000
vt 0.7909 0.1390 0.0000
vt 0.7447 0.1442 0.0000
vt 0.7557 0.1744 0.0000
vt 0.8423 0.1241 0.0000
vt 0.8161 0.0686 0.0000
vt 0.8539 0.0814 0.0000
vt 0.7379 0.1404 0.0000
vt 0.7241 0.1551 0.0000
vt 0.7174 0.1358 0.0000
vt 0.7699 0.0762 0.0000
vt 0.7437 0.1182 0.0000
vt 0.7246 0.1129 0.0000
vt 0.7062 0.1569 0.0000
vt 0.6772 0.1411 0.0000
vt 0.6746 0.1707 0.0000
vt 0.7100 0.1789 0.0000
vt 0.8112 0.1592 0.0000
vt 0.7981 0.1050 0.0000
vt 0.7724 0.1986 0.0000
vt 0.7907 0.1198 0.0000
vt 0.6709 0.1912 0.0000
vt 0.6394 0.1843 0.0000
vt 0.6200 0.1447 0.0000
vt 0.7202 0.1668 0.0000
vt 0.6501 0.1069 0.0000
vt 0.6645 0.0656 0.0000
vt 0.6495 0.0675 0.0000
vt 0.6514 0.0590 0.0000
vt 0.6631 0.0540 0.0000
vt 0.6773 0.0578 0.0000
vt 0.6773 0.0690 0.0000
vt 0.6681 0.0757 0.0000
vt 0.6542 0.0739 0.0000
vt 0.6644 0.0649 0.0000
vt 0.6847 0.0666 0.0000
vt 0.6774 0.0772 0.0000
vt 0.6630 0.0481 0.0000
vt 0.6803 0.0533 0.0000
vt 0.6471 0.0723 0.0000
vt 0.6462 0.0570 0.0000
vt 0.6597 0.0802 0.0000
vt 0.7116 0.2015 0.0000
vt 0.7148 0.1826 0.0000
vt 0.7327 0.1922 0.0000
vt 0.7288 0.2053 0.0000
vt 0.7248 0.2191 0.0000
vt 0.7040 0.2201 0.0000
vt 0.6928 0.2062 0.0000
vt 0.6965 0.1897 0.0000
vt 0.7454 0.2114 0.0000
vt 0.7529 0.1938 0.0000
vt 0.7586 0.2255 0.0000
vt 0.7417 0.2312 0.0000
vt 0.7644 0.2097 0.0000
vt 0.6854 0.0533 0.0000
vt 0.6866 0.0736 0.0000
vt 0.6713 0.0862 0.0000
vt 0.6487 0.0833 0.0000
vt 0.6386 0.0695 0.0000
vt 0.6430 0.0521 0.0000
vt 0.6634 0.0427 0.0000
# 66 texture coords

o A_Cloud14
g A_Cloud14
usemtl mat_props
s 1
f 1/1/1 2/2/2 3/3/3 
f 4/4/4 5/5/5 6/6/6 
f 7/7/7 4/4/4 8/8/8 
s 2
f 9/9/9 2/10/2 10/11/10 
s 1
f 11/12/11 12/13/12 13/14/13 
s 2
f 14/15/14 15/16/15 16/17/16 
s 1
f 17/18/17 18/19/18 13/14/13 
f 19/20/19 18/19/18 20/21/20 
s 4
f 21/22/21 22/23/22 9/9/9 
s 1
f 4/4/4 23/24/23 8/8/8 
s 2
f 2/10/2 9/9/9 22/23/22 
f 14/15/14 24/25/24 15/16/15 
s 1
f 12/13/12 7/7/7 8/8/8 
f 23/24/23 20/21/20 8/8/8 
f 19/20/19 20/21/20 23/26/23 
f 19/20/19 23/26/23 21/27/21 
s 2
f 13/14/13 5/5/5 11/12/11 
s 1
f 4/4/4 7/7/7 5/5/5 
s 4
f 21/22/21 24/25/24 22/23/22 
f 3/3/3 13/14/13 1/1/1 
s 8
f 16/17/16 5/5/5 13/14/13 
s 16
f 9/28/9 18/19/18 21/27/21 
s 1
f 23/24/23 4/4/4 21/22/21 
f 21/22/21 4/4/4 6/6/6 
f 17/18/17 13/14/13 12/13/12 
f 12/13/12 25/29/25 17/18/17 
s 8
f 5/5/5 16/17/16 15/16/15 
s 16
f 5/5/5 15/16/15 24/25/24 
f 13/14/13 18/19/18 1/1/1 
f 18/19/18 9/28/9 10/30/10 
s 2
f 14/15/14 2/10/2 22/23/22 
f 14/15/14 3/3/3 2/2/2 
f 14/15/14 22/23/22 24/25/24 
f 18/19/18 19/20/19 21/27/21 
s 1
f 18/19/18 17/18/17 20/21/20 
f 20/21/20 17/18/17 25/29/25 
f 11/12/11 7/7/7 12/13/12 
f 7/7/7 11/12/11 5/5/5 
s 32
f 24/25/24 6/6/6 5/5/5 
s 4
f 24/25/24 21/22/21 6/6/6 
s 1
f 8/8/8 25/29/25 12/13/12 
f 25/29/25 8/8/8 20/21/20 
s 2
f 14/15/14 16/17/16 3/3/3 
s 4
f 13/14/13 3/3/3 16/17/16 
s 1
f 2/2/2 1/1/1 10/30/10 
s 16
f 18/19/18 10/30/10 1/1/1 
s 1
f 26/31/26 27/32/27 28/33/28 
s 2
f 26/31/26 29/34/29 30/35/30 
s 4
f 26/31/26 30/35/30 31/36/31 
s 8
f 26/31/26 32/37/32 33/38/33 
f 34/39/34 35/40/35 36/41/36 
s 2
f 34/39/34 37/42/37 38/43/38 
s 4
f 34/39/34 39/44/39 40/45/40 
s 8
f 34/39/34 41/46/41 39/44/39 
s 1
f 42/47/42 43/48/43 44/49/44 
s 2
f 42/47/42 45/50/45 46/51/46 
s 4
f 42/47/42 47/52/47 48/53/48 
f 42/47/42 48/53/48 49/54/49 
s 1
f 50/55/50 44/49/44 43/56/43 
s 2
f 50/55/50 46/51/46 45/50/45 
s 4
f 50/55/50 48/57/48 47/58/47 
f 50/55/50 49/59/49 48/57/48 
s 2
f 34/39/34 40/45/40 37/42/37 
s 16
f 34/39/34 38/43/38 35/40/35 
s 8
f 34/39/34 36/41/36 41/46/41 
s 2
f 42/47/42 46/51/46 47/52/47 
s 8
f 42/47/42 44/49/44 45/50/45 
s 1
f 42/47/42 49/54/49 43/48/43 
s 4
f 30/35/30 40/60/40 39/61/39 31/36/31 
s 8
f 26/31/26 31/36/31 32/37/32 
f 26/31/26 33/38/33 27/32/27 
s 2
f 26/31/26 28/33/28 29/34/29 
s 8
f 31/36/31 39/61/39 41/62/41 32/37/32 
f 32/37/32 41/62/41 36/63/36 33/38/33 
f 33/38/33 36/63/36 35/64/35 27/32/27 
s 1
f 27/32/27 35/64/35 38/65/38 28/33/28 
s 2
f 28/33/28 38/65/38 37/66/37 29/34/29 
f 29/34/29 37/66/37 40/60/40 30/35/30 
s 1
f 43/56/43 49/59/49 50/55/50 
s 16
f 45/50/45 44/49/44 50/55/50 
s 2
f 47/58/47 46/51/46 50/55/50 
# 7 polygons - 74 triangles

