# 3ds Max Wavefront OBJ Exporter v0.97b - (c)2007 guruware
# File Created: 29.11.2020 09:36:12

mtllib A_WindTurbine009.mtl

#
# object A_WindTurbine009
#

v  0.1610 0.0913 0.0435
v  -0.0668 -0.0210 0.1656
v  1.2359 -1.9481 0.1355
v  2.3391 -1.4041 0.0435
v  0.1610 0.0913 -0.0435
v  2.3391 -1.4041 -0.0435
v  1.2359 -1.9481 -0.1355
v  -0.0668 -0.0210 -0.1656
v  4.7723 -6.9222 0.0262
v  4.5928 -7.0108 0.0521
v  4.5928 -7.0108 -0.0521
v  4.7723 -6.9222 -0.0262
v  -0.0731 0.0931 0.0435
v  0.1547 -0.0192 0.1656
v  1.4573 1.9079 0.1355
v  0.3541 2.4519 0.0435
v  -0.0731 0.0931 -0.0435
v  0.3541 2.4519 -0.0435
v  1.4573 1.9079 -0.1355
v  0.1547 -0.0192 -0.1656
v  4.7326 7.0108 0.0262
v  4.9121 6.9222 0.0521
v  4.9121 6.9222 -0.0521
v  4.7326 7.0108 -0.0262
v  0.0421 -0.0810 0.0435
v  0.0421 0.1437 0.1656
v  -2.5631 0.1437 0.1355
v  -2.5631 -0.9444 0.0435
v  0.0421 -0.0810 -0.0435
v  -2.5631 -0.9444 -0.0435
v  -2.5631 0.1437 -0.1355
v  0.0421 0.1437 -0.1656
v  -9.3748 0.0149 0.0262
v  -9.3748 0.1919 0.0521
v  -9.3748 0.1919 -0.0521
v  -9.3748 0.0149 -0.0262
v  0.0463 -0.4427 0.1180
v  -0.1206 0.0540 -0.7624
v  0.4297 -0.0689 0.1113
v  -0.4866 -0.2474 0.1650
v  -0.4326 0.2470 0.1874
v  0.1337 0.3573 0.1543
# 42 vertices

vn 0.4644 0.6765 0.5716
vn -0.4766 -0.3348 0.8129
vn -0.5592 -0.3861 0.7337
vn 0.6018 0.4958 0.6261
vn 0.4644 0.6765 -0.5716
vn 0.6018 0.4958 -0.6261
vn -0.5592 -0.3861 -0.7337
vn -0.4766 -0.3348 -0.8129
vn 0.7991 -0.2716 0.5364
vn -0.1804 -0.7626 0.6211
vn -0.1804 -0.7626 -0.6211
vn 0.7991 -0.2716 -0.5364
vn -0.8125 0.1471 0.5641
vn 0.3999 -0.2566 0.8799
vn 0.5656 -0.3741 0.7349
vn -0.6959 0.3561 0.6236
vn -0.8125 0.1471 -0.5641
vn -0.6959 0.3561 -0.6236
vn 0.5656 -0.3741 -0.7349
vn 0.3999 -0.2566 -0.8799
vn -0.1654 0.8212 0.5461
vn 0.7664 0.2203 0.6033
vn 0.7664 0.2203 -0.6033
vn -0.1654 0.8212 -0.5461
vn 0.2644 -0.7977 0.5421
vn -0.0099 0.5084 0.8611
vn -0.0064 0.6757 0.7371
vn 0.0684 -0.7724 0.6315
vn 0.2644 -0.7977 -0.5421
vn 0.0684 -0.7724 -0.6315
vn -0.0064 0.6757 -0.7371
vn -0.0099 0.5084 -0.8611
vn -0.6239 -0.5704 0.5342
vn -0.5718 0.5405 0.6172
vn -0.5718 0.5405 -0.6172
vn -0.6239 -0.5704 -0.5342
vn 0.1553 -0.8475 -0.5076
vn -0.0650 0.0871 -0.9941
vn 0.8402 -0.0647 -0.5384
vn -0.7796 -0.4362 -0.4494
vn -0.7035 0.6150 -0.3561
vn 0.3295 0.8653 -0.3778
# 42 vertex normals

vt 0.7102 0.9803 0.0000
vt 0.7029 0.9794 0.0000
vt 0.7029 0.9151 0.0000
vt 0.7366 0.9197 0.0000
vt 0.6864 0.9800 0.0000
vt 0.6616 0.9189 0.0000
vt 0.6954 0.9150 0.0000
vt 0.6938 0.9793 0.0000
vt 0.6841 0.9809 0.0000
vt 0.6594 0.9192 0.0000
vt 0.6932 0.7462 0.0000
vt 0.6984 0.7442 0.0000
vt 0.6991 0.7470 0.0000
vt 0.6935 0.7477 0.0000
vt 0.7020 0.7471 0.0000
vt 0.7075 0.7478 0.0000
vt 0.6921 0.7475 0.0000
vt 0.7745 0.9746 0.0000
vt 0.7625 0.9825 0.0000
vt 0.7669 0.9746 0.0000
vt 0.7815 0.9746 0.0000
vt 0.7504 0.9746 0.0000
vt 0.7428 0.9746 0.0000
vt 0.7587 0.9746 0.0000
# 24 texture coords

o A_WindTurbine009
g A_WindTurbine009
usemtl mat_props
s 2
f 1/1/1 2/2/2 3/3/3 4/4/4 
s 4
f 5/5/5 6/6/6 7/7/7 8/8/8 
s 8
f 1/9/1 4/10/4 6/6/6 5/5/5 
s 16
f 9/11/9 10/12/10 11/13/11 12/14/12 
s 32
f 10/15/10 3/3/3 7/7/7 11/13/11 
s 2
f 3/3/3 10/15/10 9/16/9 4/4/4 
s 4
f 6/6/6 12/14/12 11/13/11 7/7/7 
s 8
f 4/10/4 9/17/9 12/14/12 6/6/6 
s 32
f 3/3/3 2/2/2 8/8/8 7/7/7 
s 2
f 13/1/13 14/2/14 15/3/15 16/4/16 
s 4
f 17/5/17 18/6/18 19/7/19 20/8/20 
s 8
f 13/9/13 16/10/16 18/6/18 17/5/17 
s 16
f 21/11/21 22/12/22 23/13/23 24/14/24 
s 32
f 22/15/22 15/3/15 19/7/19 23/13/23 
s 2
f 15/3/15 22/15/22 21/16/21 16/4/16 
s 4
f 18/6/18 24/14/24 23/13/23 19/7/19 
s 8
f 16/10/16 21/17/21 24/14/24 18/6/18 
s 32
f 15/3/15 14/2/14 20/8/20 19/7/19 
s 2
f 25/1/25 26/2/26 27/3/27 28/4/28 
s 4
f 29/5/29 30/6/30 31/7/31 32/8/32 
s 8
f 25/9/25 28/10/28 30/6/30 29/5/29 
s 16
f 33/11/33 34/12/34 35/13/35 36/14/36 
s 32
f 34/15/34 27/3/27 31/7/31 35/13/35 
s 2
f 27/3/27 34/15/34 33/16/33 28/4/28 
s 4
f 30/6/30 36/14/36 35/13/35 31/7/31 
s 8
f 28/10/28 33/17/33 36/14/36 30/6/30 
s 32
f 27/3/27 26/2/26 32/8/32 31/7/31 
s 8
f 37/18/37 38/19/38 39/20/39 
f 40/21/40 38/19/38 37/18/37 
f 41/22/41 38/19/38 40/23/40 
f 42/24/42 38/19/38 41/22/41 
f 39/20/39 38/19/38 42/24/42 
# 27 polygons - 5 triangles

